<svg width="322" height="47" viewBox="0 0 322 47" fill="none" xmlns="http://www.w3.org/2000/svg">
<path d="M304.026 39.7626V39.1408C305.461 38.7103 305.94 37.6101 305.892 33.6879V24.6954L298.669 11.5892C296.804 8.19314 295.417 7.33215 294.412 6.90166V6.27984H301.97V6.90166C300.535 7.33215 301.109 8.19314 303.022 11.5892L309.671 23.4517L316.367 11.5892C317.994 8.67147 318.041 7.23649 316.224 6.90166V6.27984H321.916V6.90166C320.624 7.33215 319.142 8.19314 317.228 11.5892L309.91 24.5997V33.6879C309.91 37.6101 310.34 38.7103 311.823 39.1408V39.7626H304.026Z" fill="#A7977E"/>
<path d="M277.561 40.0974C273.878 40.0974 273.112 37.4188 271.008 32.4442C268.233 25.8433 267.851 22.4951 262.111 22.4951H259.049V33.6879C259.049 37.6101 259.48 38.7103 260.963 39.1408V39.7626H253.214V39.1408C254.697 38.7103 255.127 37.6101 255.127 33.6879V12.3546C255.127 8.4323 254.697 7.33215 253.214 6.90166V6.27984H262.637C272.347 6.27984 275.217 9.48462 275.217 13.7417C275.217 18.238 271.964 21.6341 265.746 22.3516C271.629 23.1169 272.538 26.0347 274.834 31.9181C277.13 37.658 278.087 39.2365 279.713 39.2365C280 39.2365 280.239 39.2364 280.478 39.1886V39.7626C279.761 40.0018 278.517 40.0974 277.561 40.0974ZM259.049 21.7776H263.067C268.568 21.7776 271.151 18.9076 271.151 14.8419C271.151 10.5848 268.377 6.99733 261.298 6.99733C260.58 6.99733 259.815 7.04516 259.049 7.09299V21.7776Z" fill="#A7977E"/>
<path d="M177.039 40.1453L154.509 10.8239V31.7746C154.509 37.2275 155.657 38.5668 157.81 39.1408V39.7626H151.831V39.1408C153.266 38.7103 153.744 37.6101 153.744 33.6879V12.3546C153.744 8.4323 153.17 7.33215 151.257 6.90166V6.27984H155.944L176.847 33.353V14.2679C176.847 8.81496 175.699 7.47565 173.547 6.90166V6.27984H179.574V6.90166C178.091 7.33215 177.66 8.4323 177.66 12.3546V40.1453H177.039Z" fill="#A7977E"/>
<path d="M129.574 39.7626V39.1408C131.009 38.7103 131.488 37.6101 131.488 33.6879V12.3546C131.488 8.4323 131.009 7.33215 129.574 6.90166V6.27984H137.323V6.90166C135.84 7.33215 135.41 8.4323 135.41 12.3546V33.6879C135.41 37.6101 135.84 38.7103 137.323 39.1408V39.7626H129.574Z" fill="#A7977E"/>
<path d="M80.7223 39.7626V39.1408C82.2051 38.7103 82.6356 37.6101 82.6356 33.6879V14.2679C82.6356 8.81496 81.6311 7.47565 79.7178 6.90166V6.27984H85.5055L97.9898 26.8957L110.235 6.27984H115.64V6.90166C113.727 7.47565 112.722 8.81496 112.722 14.2679V33.6879C112.722 37.6101 113.153 38.7103 114.636 39.1408V39.7626H106.887V39.1408C108.322 38.7103 108.8 37.6101 108.8 33.6879V10.1543L96.6505 30.6744H95.7417L83.4965 10.5369V31.7746C83.4965 37.2275 84.6445 38.5668 86.7491 39.1408V39.7626H80.7223Z" fill="#A7977E"/>
<path d="M51.9607 40.2409C45.1206 40.2409 38.424 37.0362 38.424 27.4218V12.3546C38.424 8.4323 37.9936 7.33215 36.5107 6.90166V6.27984H44.2596V6.90166C42.8246 7.33215 42.3463 8.4323 42.3463 12.3546V27.1348C42.3463 36.0317 47.2731 39.2365 53.4913 39.2365C57.6049 39.2365 63.1056 36.51 63.1056 27.1348V14.2679C63.1056 8.81496 61.9576 7.47565 59.853 6.90166V6.27984H65.7843V6.90166C64.3493 7.33215 63.871 8.4323 63.871 12.3546V26.9913C63.871 36.6057 58.6094 40.2409 51.9607 40.2409Z" fill="#A7977E"/>
<path d="M0 39.7626V39.1408C1.43498 38.7103 1.9133 37.6101 1.9133 33.6879V12.3546C1.9133 8.4323 1.43498 7.33215 0 6.90166V6.27984H7.74887V6.90166C6.26606 7.33215 5.83557 8.4323 5.83557 12.3546V36.8448C5.83557 38.232 6.60089 38.9973 7.98803 38.9973H13.6801C18.272 38.9973 20.3767 37.8493 22.0508 34.2619L22.577 34.3575L22.2421 39.7626H0Z" fill="#A7977E"/>
<path d="M216.393 0C216.393 0 217.632 11.8655 222.575 16.8187C227.492 21.7464 239.28 23.0422 239.28 23.0422C239.28 23.0422 227.492 24.3379 222.575 29.2656C217.632 34.2188 216.393 46.0843 216.393 46.0843C216.393 46.0843 215.155 34.2188 210.212 29.2656C205.294 24.3379 193.507 23.0422 193.507 23.0422C193.507 23.0422 205.294 21.7464 210.212 16.8187C215.155 11.8655 216.393 0 216.393 0Z" fill="#EDE8E1"/>
</svg>
